# xmcd CD database file
# Copyright (C) 1993-2000  Ti Kan
#
# Track frame offsets:
#	900
#	22350
#	41250
#	63075
#	80175
#	103800
#	128925
#	146850
#	156900
#	178725
#	201225
#	225375
#
# Disc length: 3385 seconds
#
# Revision: 1
# Processed by: cddbd v1.5.2PL0 Copyright (c) Steve Scherf et al.
# Submitted via: xmcd 2.6 PL0
#
DISCID=ae0d2d0c
DTITLE=Tina Turner - Live From The Gelre Dome
DYEAR=1900
DGENRE=
TTITLE0=Steamy Windows
TTITLE1=River Deep, Mountain High
TTITLE2=Better Be Good To Me
TTITLE3=What's Love Got To Do With It
TTITLE4=Private Dancer
TTITLE5=Help
TTITLE6=Let´s Stay Together
TTITLE7=Jumpin´ Jack Flash
TTITLE8=Addicted To Love
TTITLE9=The Best
TTITLE10=Proud Mary
TTITLE11=Nutbush City Limits
EXTD=
EXTT0=
EXTT1=
EXTT2=
EXTT3=
EXTT4=
EXTT5=
EXTT6=
EXTT7=
EXTT8=
EXTT9=
EXTT10=
EXTT11=
PLAYORDER=
